<?xml version="1.0" encoding="utf-8"?>
<!-- Generator: Adobe Illustrator 21.0.2, SVG Export Plug-In . SVG Version: 6.00 Build 0)  -->
<svg version="1.1" id="Layer_1" xmlns="http://www.w3.org/2000/svg" xmlns:xlink="http://www.w3.org/1999/xlink" x="0px" y="0px"
	 viewBox="0 0 197.5 172" style="enable-background:new 0 0 197.5 172;" xml:space="preserve">
<style type="text/css">
	.st0{fill:#FFFFFF;}
	.st1{fill:#00748B;}
	.st2{fill:#E8E8E9;}
	.st3{fill:#E18C36;}
	.st4{fill:#3B517F;}
</style>
<g>
	<path class="st0" d="M52.7,2.8c-17.3,0-31.3,7-31.3,15.7v0v78.3L84,62.3V18.5C84,9.8,69.9,2.8,52.7,2.8z"/>
	<path class="st1" d="M52.7,37.3c-19.3,0-34.4-8.3-34.4-18.8S33.4-0.3,52.7-0.3S87.1,8,87.1,18.5S72,37.3,52.7,37.3z M52.7,6
		c-16.6,0-28.2,6.6-28.2,12.5S36.1,31,52.7,31s28.2-6.6,28.2-12.5S69.3,6,52.7,6z"/>
	<path class="st1" d="M52.7,52.9c-19.3,0-34.4-8.3-34.4-18.8V18.5h6.3v15.7c0,5.9,11.6,12.5,28.2,12.5s28.2-6.6,28.2-12.5V18.5h6.3
		v15.7C87.1,44.7,72,52.9,52.7,52.9z"/>
	<path class="st1" d="M84,52.9c-1.7,0-3.1-1.4-3.1-3.1V34.1c0-1.7,1.4-3.1,3.1-3.1s3.1,1.4,3.1,3.1v15.7
		C87.1,51.5,85.7,52.9,84,52.9z"/>
	<path class="st1" d="M43.3,67.9c-0.2,0-0.3,0-0.5,0c-14.9-2.3-24.6-9.4-24.6-18V34.1c0-1.7,1.4-3.1,3.1-3.1s3.1,1.4,3.1,3.1v15.7
		c0,5.1,8.1,10.1,19.3,11.8c1.7,0.3,2.9,1.9,2.6,3.6C46.1,66.8,44.8,67.9,43.3,67.9z"/>
	<path class="st1" d="M30.8,79.8c-0.5,0-0.9-0.1-1.4-0.3c-7.2-3.5-11.1-8.5-11.1-14V49.8c0-1.7,1.4-3.1,3.1-3.1s3.1,1.4,3.1,3.1
		v15.7c0,2.9,2.8,6,7.6,8.4c1.5,0.8,2.2,2.6,1.4,4.2C33,79.1,31.9,79.8,30.8,79.8z"/>
	<path class="st1" d="M21.4,87.4c-1.7,0-3.1-1.4-3.1-3.1V49.8c0-1.7,1.4-3.1,3.1-3.1s3.1,1.4,3.1,3.1v34.4
		C24.5,86,23.1,87.4,21.4,87.4z"/>
	<g>
		<polygon class="st2" points="195.9,72.1 69.7,138.3 3.3,103.5 129.5,37.3 		"/>
		<path class="st1" d="M69.7,141.4c-0.5,0-1-0.1-1.5-0.4L1.9,106.2c-1-0.5-1.7-1.6-1.7-2.8c0-1.2,0.6-2.2,1.7-2.8L128,34.5
			c0.9-0.5,2-0.5,2.9,0l66.4,34.8c1,0.5,1.7,1.6,1.7,2.8c0,1.2-0.6,2.2-1.7,2.8L71.2,141.1C70.7,141.3,70.2,141.4,69.7,141.4z
			 M10.1,103.5l59.7,31.3l119.4-62.6l-59.7-31.3L10.1,103.5z"/>
	</g>
	<path class="st1" d="M69.7,156.8c-0.5,0-1-0.1-1.5-0.4L1.9,121.6c-1.5-0.8-2.1-2.7-1.3-4.2c0.8-1.5,2.7-2.1,4.2-1.3l64.9,34.1
		l124.7-65.4c1.5-0.8,3.4-0.2,4.2,1.3c0.8,1.5,0.2,3.4-1.3,4.2L71.2,156.4C70.7,156.7,70.2,156.8,69.7,156.8z"/>
	<path class="st1" d="M69.7,172.2c-0.5,0-1-0.1-1.5-0.4L1.9,137c-1.5-0.8-2.1-2.7-1.3-4.2c0.8-1.5,2.7-2.1,4.2-1.3l64.9,34.1
		l124.7-65.4c1.5-0.8,3.4-0.2,4.2,1.3c0.8,1.5,0.2,3.4-1.3,4.2L71.2,171.8C70.7,172,70.2,172.2,69.7,172.2z"/>
	<g>
		<path class="st0" d="M160.5,69.8l-26.6-13.9c-4.4,2.3-9.6,1.9-13.3,0l-81.9,43c4.4,2.3,3.7,5,0,6.9l26.6,13.9
			c3.7-1.9,8.8-2.3,13.2,0l81.9-43C156.8,74.8,156.1,72.1,160.5,69.8z"/>
		<path class="st1" d="M78.6,123.3l-1.5-0.8c-3.2-1.7-7.2-1.7-10.3,0l-1.5,0.8L32,105.8l5.3-2.8c0.5-0.3,0.8-0.5,1.1-0.7
			c-0.2-0.2-0.6-0.4-1.1-0.7L32,98.8l88.7-46.5l1.5,0.8c2.4,1.3,6.5,2,10.4,0l1.5-0.8l33.3,17.5l-5.3,2.8c-0.5,0.3-0.9,0.5-1.1,0.7
			c0.2,0.2,0.6,0.4,1.1,0.7l5.3,2.8L78.6,123.3z M71.9,115c2.2,0,4.5,0.4,6.6,1.3l76.6-40.2c-0.6-1-0.8-2-0.8-2.8
			c0-0.8,0.2-1.8,0.8-2.8l-21.2-11.1c-4.2,1.7-8.9,1.7-13.1,0L44.1,99.5c0.6,1,0.8,2,0.8,2.8c0,0.8-0.2,1.8-0.7,2.8l21.3,11.2
			C67.5,115.4,69.7,115,71.9,115z M38.7,102.7L38.7,102.7L38.7,102.7z"/>
	</g>
	<rect x="127.8" y="68.6" class="st3" width="6.3" height="6.3"/>
	<rect x="65.2" y="99.9" class="st3" width="6.3" height="6.3"/>
	<g>
		<path class="st0" d="M111.7,81.4c7.3,3.9,7.8,9.8,1.1,13.4c-6.7,3.5-18.1,3.3-25.5-0.6c-7.3-3.9-7.8-9.8-1.1-13.4
			C93,77.3,104.4,77.6,111.7,81.4z"/>
		<path class="st4" d="M101.1,100.4c-5.3,0-10.8-1.2-15.2-3.4c-4.8-2.5-7.5-6.1-7.5-10c0-2.1,0.8-6,6.4-8.9c7.6-4,20.1-3.7,28.4,0.6
			v0c4.8,2.5,7.5,6.1,7.5,10c0,2.1-0.8,6-6.4,8.9C110.6,99.4,105.9,100.4,101.1,100.4z M97.9,81.5c-3.8,0-7.5,0.7-10.2,2.1
			c-1.9,1-3.1,2.2-3.1,3.4c0,1.1,1.1,2.8,4.2,4.4c6.4,3.4,16.7,3.6,22.5,0.6c1.9-1,3.1-2.2,3.1-3.4c0-1.1-1.1-2.8-4.2-4.4
			C106.8,82.4,102.3,81.5,97.9,81.5z"/>
	</g>
	<g>
		<polygon class="st3" points="115.3,113.8 46.4,74.8 77.7,59.2 149.7,96.7 149.7,134.6 115.3,153.1 		"/>
		<path class="st1" d="M115.3,156.2c-0.6,0-1.1-0.1-1.6-0.4c-0.9-0.6-1.5-1.6-1.5-2.7v-37.5L44.9,77.6c-1-0.6-1.6-1.6-1.6-2.8
			c0-1.2,0.7-2.2,1.7-2.7l31.3-15.7c0.9-0.4,2-0.4,2.8,0l72,37.5c1,0.5,1.7,1.6,1.7,2.8v37.9c0,1.2-0.6,2.2-1.6,2.8l-34.4,18.5
			C116.3,156.1,115.8,156.2,115.3,156.2z M53.1,75l63.8,36.1c1,0.6,1.6,1.6,1.6,2.7v34.1l28.2-15.2V98.6L77.7,62.7L53.1,75z"/>
	</g>
</g>
</svg>
