<?xml version="1.0" encoding="utf-8"?>
<!-- Generator: Adobe Illustrator 21.0.2, SVG Export Plug-In . SVG Version: 6.00 Build 0)  -->
<svg version="1.1" id="Layer_1" xmlns="http://www.w3.org/2000/svg" xmlns:xlink="http://www.w3.org/1999/xlink" x="0px" y="0px"
	 viewBox="0 0 392.6 166.9" style="enable-background:new 0 0 392.6 166.9;" xml:space="preserve">
<style type="text/css">
	.st0{fill:#718B2C;}
	.st1{fill:#E18C36;}
	.st2{fill:#00748B;}
	.st3{fill:#7E858B;}
	.st4{fill:#5B4973;}
	.st5{fill:#F5DC4E;}
</style>
<title>excel_color</title>
<g>
	<g id="Layer_1_1_">
		<g id="_Group_">
			<g id="_Group_2">
				<path id="_Path_" class="st0" d="M360.7,39.6c-0.8-1.8-1.9-3.5-3.3-4.8c-2.6-2.4-5.7-3.1-9.1-3.5c-1.3-0.1-9.9-0.4-9.9-0.3
					c0,4.4,0,87.5,0,87.5c0,0.7,0.6,1.3,1.3,1.3c0,0,0,0,0,0h51c1.1,0,1.9-0.9,1.9-1.9v-16.1c0-1-0.8-1.8-1.8-1.8c0,0,0,0,0,0h-27.1
					c-1,0-1.9-0.8-1.9-1.9c0,0,0,0,0,0v-7.9l0.1-39.5c0.1-2.7,0-5.4-0.4-8.1C361.4,41.6,361.1,40.6,360.7,39.6z"/>
				<path id="_Path_2" class="st1" d="M206.7,99.7c-13.4,0-21.6-10.8-21.6-24.6s7.9-24.5,20.8-24.5c10,0,15.4,4.2,18.8,8.8
					c0.7,0.9,1.9,1.1,2.8,0.4l14.8-10c0.6-0.4,0.8-1.3,0.4-1.9c0,0,0,0,0,0c-7.4-10.2-18.9-17.7-37.2-17.7
					c-24.4-0.1-44.3,19.7-44.4,44.1c0,0.3,0,0.5,0,0.8c0,26.4,21,45,45.7,45c17.2,0,29.2-5.9,37.8-19.5c0.5-0.8,0.2-1.7-0.5-2.2
					l-15.3-9.8c-0.8-0.5-1.8-0.3-2.3,0.5c0,0,0,0,0,0.1C222.8,95.3,217.3,99.7,206.7,99.7z"/>
				<g id="_Group_3">
					<path id="_Path_3" class="st2" d="M23.5,65V53c0-0.7,0.6-1.2,1.2-1.1h35.3c0.8,0,1.5-0.7,1.5-1.5c0,0,0,0,0,0V33.5
						c0-0.7-0.6-1.3-1.3-1.3h-59c-0.7,0-1.3,0.6-1.3,1.3l0,0v84.6c0,0.9,0.7,1.6,1.6,1.6c0,0,0,0,0,0H62c0.8,0,1.4-0.6,1.4-1.4
						v-17.1c0-0.7-0.5-1.3-1.2-1.3c0,0,0,0,0,0H24.7c-0.7,0-1.2-0.6-1.2-1.2l0,0L23.5,65L23.5,65z"/>
					<ellipse id="_Path_4" class="st3" cx="45.4" cy="75.2" rx="9.3" ry="9.2"/>
				</g>
				<g id="_Group_4">
					<path id="_Path_5" class="st4" d="M279.5,65V53c0-0.6,0.6-1.1,1.2-1.1h35.4c0.8,0,1.5-0.7,1.5-1.5c0,0,0,0,0,0V33.5
						c0-0.7-0.6-1.3-1.3-1.3h-59c-0.7,0-1.3,0.6-1.3,1.3v84.6c0,0.9,0.7,1.6,1.6,1.6c0,0,0,0,0,0h60.4c0.8,0,1.4-0.6,1.4-1.4v-17.1
						c0-0.7-0.6-1.2-1.2-1.2h-37.5c-0.7,0-1.2-0.6-1.2-1.2c0,0,0,0,0,0L279.5,65L279.5,65z"/>
					<ellipse id="_Path_6" class="st3" cx="301.5" cy="75.2" rx="9.3" ry="9.2"/>
				</g>
				<g id="_Group_5">
					<path id="_Path_7" class="st5" d="M105.1,75l29.5-43.3c0.2-0.3,0.5-0.4,0.8-0.4h21.9c0.5,0,0.9,0.4,0.9,0.9
						c0,0.2-0.1,0.4-0.2,0.5L128.6,75c-0.2,0.3-0.2,0.7,0,1.1l29.6,42.3c0.3,0.4,0.2,1-0.3,1.3c-0.2,0.1-0.3,0.2-0.5,0.2h-21.9
						c-0.3,0-0.6-0.2-0.8-0.4l-29.6-43.3C104.8,75.8,104.8,75.3,105.1,75z"/>
					<path id="_Path_8" class="st3" d="M128.2,75L98.7,31.7c-0.2-0.3-0.5-0.4-0.8-0.4H76c-0.5,0-0.9,0.4-0.9,0.9
						c0,0.2,0.1,0.4,0.2,0.5L104.7,75c0.2,0.3,0.2,0.7,0,1.1l-29.6,42.3c-0.3,0.4-0.2,1,0.3,1.3c0.2,0.1,0.3,0.2,0.5,0.2h21.9
						c0.3,0,0.6-0.2,0.8-0.4l29.6-43.3C128.4,75.8,128.4,75.3,128.2,75z"/>
				</g>
			</g>
			<g id="_Group_6">
				<path id="_Compound_Path_" class="st3" d="M6.4,8.3H0.2V3h18.6v5.3h-6.2v18.2H6.4V8.3z"/>
				<path id="_Compound_Path_2" class="st3" d="M36.5,3h6.3v23.5h-6.3V19h-8.1v7.5h-6.2V3h6.2v10.7h8.1L36.5,3z"/>
				<path id="_Compound_Path_3" class="st3" d="M47.3,3h16.3v5.3H53.5v5.5H62v5h-8.4v2.5h10.6v5.3H47.3V3z"/>
				<path id="_Compound_Path_4" class="st3" d="M68.5,14.7C68.3,8.2,73.5,2.8,80,2.7c0.2,0,0.3,0,0.5,0c4.3,0,6.9,1.6,8.8,3.7
					l-2.6,2.4c-1.6-1.9-3.9-3-6.4-2.8c-4.7,0-8,3.7-8,8.7s3.4,8.7,8.7,8.7c2,0.1,3.9-0.4,5.6-1.4v-2.7h-6.2V16H90v7.7
					c-2.5,2.1-5.7,3.2-9,3.1C73.8,26.8,68.5,21.7,68.5,14.7z"/>
				<path id="_Compound_Path_5" class="st3" d="M93.3,14.7c0-6.6,5.4-12,12-12c6.6,0,12,5.4,12,12c0,0,0,0,0,0c0,6.6-5.4,12-12,12
					S93.3,21.4,93.3,14.7z M113.5,14.7c0-5-3.4-8.7-8.2-8.7s-8.2,3.7-8.2,8.7s3.4,8.7,8.2,8.7S113.5,19.7,113.5,14.7L113.5,14.7z"/>
				<path id="_Compound_Path_6" class="st3" d="M120.1,14.7c0-6.6,5.4-12,12-12c6.6,0,12,5.4,12,12s-5.4,12-12,12
					C125.5,26.7,120.1,21.4,120.1,14.7z M140.4,14.7c0-5-3.4-8.7-8.2-8.7c-4.8,0-8.2,3.7-8.2,8.7s3.4,8.7,8.2,8.7
					C137,23.5,140.4,19.7,140.4,14.7L140.4,14.7z"/>
				<path id="_Compound_Path_7" class="st3" d="M148.1,3h6.6c7.6,0,12.3,4.8,12.3,11.8s-4.6,11.8-12.3,11.8h-6.6V3z M154.5,23.2
					c6,0,8.7-3.5,8.7-8.5s-2.6-8.5-8.7-8.5h-2.7v17L154.5,23.2z"/>
				<path id="_Compound_Path_8" class="st3" d="M167.8,3h3.9l5,15l6.6-15.5h0.2l6.6,15.5L195,3h3.6l-8.2,23.8h-0.2l-6.9-16.4
					l-7.1,16.4h-0.2L167.8,3z"/>
				<path id="_Compound_Path_9" class="st3" d="M202.1,3h3.6v23.5h-3.7L202.1,3z"/>
				<path id="_Compound_Path_10" class="st3" d="M212.6,3h3.7v20.2h10.3v3.3h-13.9V3z"/>
				<path id="_Compound_Path_11" class="st3" d="M230.9,3h3.7v20.2h10.3v3.3h-13.9V3z"/>
			</g>
			<g id="_Group_7">
				<path id="_Path_9" class="st3" d="M185.7,156.8c-5,0-8-4-8-9.2s2.9-9.1,7.7-9.1c2.8-0.2,5.5,1.1,7.1,3.4
					c0.2,0.3,0.5,0.3,0.8,0.1l5.5-3.7c0.3-0.2,0.4-0.7,0.2-1.1c0,0,0,0,0,0c-2.8-3.7-7-6.4-13.6-6.4c-9.1,0-16.5,7.3-16.5,16.4
					c0,0.1,0,0.2,0,0.3c0,9.8,7.8,16.8,17,16.8c6.4,0,10.8-2.2,14-7.2c0.2-0.3,0.1-0.8-0.2-1l-5.6-3.6c-0.3-0.2-0.6-0.1-0.8,0.2
					c0,0,0,0,0,0C191.6,155.1,189.6,156.8,185.7,156.8z"/>
				<path id="_Path_10" class="st3" d="M223,153.2h10.6c0.4,0,0.7-0.3,0.7-0.7v-5.6c0-0.4-0.3-0.7-0.7-0.7h-10.7
					c-0.3,0-0.5-0.2-0.5-0.5l0,0v-6.6c0-0.3,0.2-0.5,0.5-0.5h0h13c0.4,0,0.7-0.3,0.7-0.7c0,0,0,0,0,0V132c0-0.4-0.3-0.7-0.7-0.7
					h-21.6c-0.4,0-0.7,0.3-0.7,0.7l0,0v31.3c0,0.4,0.3,0.7,0.7,0.7h22.1c0.4,0,0.7-0.3,0.7-0.7c0,0,0,0,0,0v-5.9
					c0-0.4-0.3-0.7-0.7-0.7l0,0H223c-0.3,0-0.5-0.2-0.5-0.5c0,0,0,0,0,0v-2.4C222.5,153.4,222.7,153.2,223,153.2
					C223,153.2,223,153.2,223,153.2z"/>
				<path id="_Path_11" class="st3" d="M272,146.7c0,0.3-0.2,0.5-0.5,0.5c-0.1,0-0.2,0-0.3-0.1l-19.7-16.2c-0.5-0.4-0.7-0.2-0.7,0.1
					v32.6c0,0.3,0.2,0.5,0.5,0.5l0,0h7.2c0.3,0,0.5-0.2,0.5-0.5l0,0v-14.8c0-0.3,0.2-0.5,0.5-0.5c0.1,0,0.2,0,0.3,0.1l19.7,16.2
					c0.5,0.4,0.7,0.3,0.7-0.1v-32.7c0-0.3-0.2-0.5-0.5-0.5l0,0h-7.3c-0.2,0-0.5,0.2-0.5,0.4c0,0,0,0,0,0L272,146.7z"/>
				<path id="_Path_12" class="st3" d="M291.4,138.7h7.6c0.2,0,0.4,0.2,0.4,0.4v0v24.1c0,0.4,0.3,0.8,0.8,0.8l0,0h7.2
					c0.4,0,0.8-0.3,0.8-0.8v-24.1c0-0.2,0.2-0.4,0.4-0.4h7.5c0.4,0,0.7-0.3,0.7-0.7l0,0v-6c0-0.4-0.3-0.6-0.6-0.6l0,0h-24.6
					c-0.4,0-0.7,0.3-0.7,0.7v6C290.8,138.4,291,138.7,291.4,138.7z"/>
				<path id="_Path_13" class="st3" d="M338.8,153.2h10.6c0.4,0,0.7-0.3,0.7-0.7c0,0,0,0,0,0v-5.6c0-0.4-0.3-0.7-0.7-0.7l0,0h-10.6
					c-0.3,0-0.5-0.2-0.5-0.5v-6.5c0-0.3,0.2-0.6,0.5-0.6h12.9c0.4,0,0.7-0.3,0.7-0.7c0,0,0,0,0,0v-6c0-0.4-0.3-0.6-0.6-0.6l0,0
					h-21.6c-0.3,0-0.6,0.3-0.6,0.6v31.2c0,0.5,0.4,0.8,0.8,0.8l0,0h22c0.4,0,0.7-0.3,0.7-0.7c0,0,0,0,0,0v-5.9
					c0-0.4-0.3-0.7-0.7-0.7l0,0h-13.6c-0.3,0-0.5-0.2-0.5-0.5v-2.4C338.4,153.4,338.6,153.2,338.8,153.2z"/>
				<path id="_Compound_Path_12" class="st3" d="M392.9,144.1c0-7.2-4.9-12.8-13.7-12.8h-11.7c-0.4,0-0.7,0.3-0.7,0.7v31.2
					c0,0.4,0.3,0.7,0.7,0.7l0,0h7.3c0.4,0,0.7-0.3,0.7-0.7c0,0,0,0,0,0v-6.2c0-0.3,0.3-0.6,0.6-0.6h2.3c0.2,0,0.4,0.1,0.5,0.3
					l4.1,6.8c0.1,0.2,0.4,0.4,0.7,0.4h8.2c0.2,0,0.4-0.2,0.4-0.4c0-0.1,0-0.2-0.1-0.3l-5.2-8.2c-0.1-0.2-0.1-0.5,0.1-0.6
					c0,0,0,0,0,0C391,152.3,392.9,148.7,392.9,144.1z M378.7,149.5h-2.6c-0.4,0-0.6-0.3-0.6-0.6v0v-9.5c0-0.3,0.3-0.6,0.6-0.6h2.6
					c3.9,0,5.4,2.2,5.4,5.4S382.7,149.5,378.7,149.5z"/>
			</g>
		</g>
	</g>
</g>
</svg>
