<?xml version="1.0" encoding="utf-8"?>
<!-- Generator: Adobe Illustrator 21.0.2, SVG Export Plug-In . SVG Version: 6.00 Build 0)  -->
<svg version="1.1" id="Layer_1" xmlns="http://www.w3.org/2000/svg" xmlns:xlink="http://www.w3.org/1999/xlink" x="0px" y="0px"
	 viewBox="0 0 197.5 172" style="enable-background:new 0 0 197.5 172;" xml:space="preserve">
<style type="text/css">
	.st0{fill:#FFFFFF;}
	.st1{fill:#00748B;}
	.st2{fill:#E8E8E9;}
	.st3{fill:#E18C36;}
	.st4{fill:#3B517F;}
</style>
<g>
	<g>
		<path class="st3" d="M146.9,75.8c0-11.2-21.7-20.4-48.3-20.4s-48.3,9.1-48.3,20.4c0,4.8,0,35.5,0,40.3c3,9.1,24.6,18.1,51.2,18.1
			c26.6,0,43-12.4,45.3-18.1C146.8,111.3,146.9,80.6,146.9,75.8z"/>
		<path class="st1" d="M101.5,137.2c-26.6,0-50.3-8.9-54.1-20.2l-0.2-0.5V75.8c0-13.1,22.5-23.4,51.3-23.4s51.3,10.3,51.3,23.4
			c0,2.4,0,11.3-0.1,20.2c0,8.9-0.1,17.7-0.1,20.1v0.6l-0.2,0.5C146.9,124,129.5,137.2,101.5,137.2z M53.3,115.6
			c2.8,6.5,21,15.6,48.2,15.6c24.5,0,39.6-10.9,42.3-15.7c0-3.1,0-11.3,0.1-19.5c0-8.9,0.1-17.7,0.1-20.1c0-8.2-18.6-17.3-45.3-17.3
			s-45.3,9.1-45.3,17.3V115.6z"/>
	</g>
	<rect x="59.3" y="79.9" class="st0" width="6" height="36.2"/>
	<path class="st0" d="M105.1,32.4c-3-0.9-6.3-0.9-9.3,0L5.1,58.6V68l91.2,27.9c2.6,0.8,5.4,0.8,8,0L192,68v-9.4L105.1,32.4z"/>
	<path class="st1" d="M100.3,99.5c-1.7,0-3.3-0.3-4.9-0.7L2,70.3V56.3L95,29.5c3.5-1.1,7.5-1.1,11.1,0l89,26.8v13.8L179,75.7l-2-5.7
		l12-4.1v-5l-84.7-25.6c-2.5-0.8-5.1-0.8-7.5,0L8.1,60.9v4.9L97.1,93c2,0.6,4.2,0.6,6.2,0l60.9-19.3l1.8,5.7l-60.9,19.3
		C103.6,99.3,101.9,99.5,100.3,99.5z"/>
	<path class="st1" d="M170.7,113.2C170.7,113.2,170.7,113.2,170.7,113.2c-1.7,0-3-1.4-3-3l0.1-24.1c0-3.4-2-6.3-4.7-7l-62.7-18.3
		c-1.6-0.5-2.5-2.1-2-3.7s2.2-2.5,3.7-2l62.6,18.3c5.4,1.4,9.2,6.7,9.1,12.9l-0.1,24.1C173.8,111.8,172.4,113.2,170.7,113.2z"/>
	<g>
		<path class="st0" d="M183,146.3l-9-30.2h-6l-9,30.2c-0.8,3.1,2.8,6,6,6H177C180.1,152.3,183.8,149.4,183,146.3z"/>
		<path class="st1" d="M177,155.3h-12.1c-2.9,0-5.9-1.5-7.6-3.8c-1.4-1.8-1.9-4-1.3-6l9.7-32.4h10.5l9.7,32.4c0.5,2.1,0,4.2-1.4,6
			C182.8,153.8,179.8,155.3,177,155.3z M170.1,119.1l-8.4,28c0,0.2,0.1,0.5,0.3,0.7c0.6,0.8,1.9,1.4,2.8,1.4H177
			c1,0,2.2-0.6,2.8-1.4c0.1-0.2,0.4-0.5,0.3-0.8l-8.4-27.9H170.1z"/>
	</g>
	<g>
		<path class="st2" d="M180,110.1c0,5-4.1,9-9.1,9c-5,0-9-4.1-9-9c0-5,4.1-9,9.1-9C176,101,180,105.1,180,110.1z"/>
		<path class="st1" d="M170.9,122.2c-3.2,0-6.3-1.3-8.5-3.5c-2.3-2.3-3.5-5.3-3.5-8.5c0-6.6,5.5-12.1,12.1-12.1
			c3.2,0,6.3,1.3,8.5,3.5c2.3,2.3,3.5,5.3,3.5,8.5C183,116.7,177.5,122.2,170.9,122.2z M171,104.1c-3.3,0-6.1,2.7-6.1,6
			c0,1.6,0.6,3.1,1.7,4.3c1.1,1.1,2.6,1.8,4.3,1.8c3.3,0,6.1-2.7,6.1-6c0-1.6-0.6-3.1-1.7-4.3C174.1,104.7,172.6,104.1,171,104.1z"
			/>
	</g>
</g>
</svg>
