<svg id="Layer_1" data-name="Layer 1" xmlns="http://www.w3.org/2000/svg" viewBox="0 0 423.42 188.33"><defs><style>.cls-1{fill:#fff;}</style></defs><title>excel_white</title><g id="_Group_" data-name="&lt;Group&gt;"><g id="_Group_2" data-name="&lt;Group&gt;"><path id="_Compound_Path_" data-name="&lt;Compound Path&gt;" class="cls-1" d="M21.43,18.75H15.27V13.45H33.83v5.29H27.67V37H21.43Z"/><path id="_Compound_Path_2" data-name="&lt;Compound Path&gt;" class="cls-1" d="M51.51,13.45h6.23V37H51.51V29.5H43.42V37H37.19V13.45h6.23V24.21h8.08Z"/><path id="_Compound_Path_3" data-name="&lt;Compound Path&gt;" class="cls-1" d="M62.33,13.45H78.67v5.29H68.56v5.46H77v5H68.56v2.46H79.15V37H62.33Z"/><path id="_Compound_Path_4" data-name="&lt;Compound Path&gt;" class="cls-1" d="M83.53,25.22a11.79,11.79,0,0,1,12-12.07c4.32,0,6.92,1.56,8.84,3.74l-2.53,2.42a7.64,7.64,0,0,0-6.41-2.8c-4.73,0-8,3.74-8,8.72s3.36,8.72,8.67,8.72a9.78,9.78,0,0,0,5.65-1.49V29.78H95.42V26.5H105v7.71a13.29,13.29,0,0,1-9,3.08C88.84,37.29,83.53,32.17,83.53,25.22Z"/><path id="_Compound_Path_5" data-name="&lt;Compound Path&gt;" class="cls-1" d="M108.29,25.22a12,12,0,1,1,24,0,12,12,0,1,1-24,0Zm20.25,0c0-5-3.39-8.72-8.22-8.72s-8.22,3.74-8.22,8.72,3.39,8.72,8.22,8.72S128.54,30.2,128.54,25.22Z"/><path id="_Compound_Path_6" data-name="&lt;Compound Path&gt;" class="cls-1" d="M135.15,25.22a12,12,0,1,1,24,0,12,12,0,1,1-24,0Zm20.25,0c0-5-3.39-8.72-8.22-8.72s-8.22,3.74-8.22,8.72,3.39,8.72,8.22,8.72S155.39,30.2,155.39,25.22Z"/><path id="_Compound_Path_7" data-name="&lt;Compound Path&gt;" class="cls-1" d="M163.13,13.45h6.58c7.6,0,12.26,4.81,12.26,11.76S177.35,37,169.71,37h-6.58Zm6.37,20.24c6,0,8.67-3.49,8.67-8.47s-2.64-8.48-8.67-8.48H166.8v17Z"/><path id="_Compound_Path_8" data-name="&lt;Compound Path&gt;" class="cls-1" d="M182.86,13.45h3.87l5,15L198.31,13h.21l6.61,15.5,4.9-15h3.63L205.5,37.29h-.21l-6.89-16.4-7.06,16.4h-.17Z"/><path id="_Compound_Path_9" data-name="&lt;Compound Path&gt;" class="cls-1" d="M217.14,13.45h3.67V37h-3.67Z"/><path id="_Compound_Path_10" data-name="&lt;Compound Path&gt;" class="cls-1" d="M227.63,13.45h3.67V33.69h10.28V37H227.63Z"/><path id="_Compound_Path_11" data-name="&lt;Compound Path&gt;" class="cls-1" d="M245.95,13.45h3.67V33.69h10.28V37H245.95Z"/></g><g id="_Group_3" data-name="&lt;Group&gt;"><path id="_Path_" data-name="&lt;Path&gt;" class="cls-1" d="M200.69,167.29c-5,0-8-4-8-9.17S195.6,149,200.4,149a8,8,0,0,1,7.07,3.43.57.57,0,0,0,.78.15l5.46-3.71a.76.76,0,0,0,.19-1.08c-2.75-3.7-7-6.37-13.65-6.37a16.45,16.45,0,0,0-16.51,16.7c0,9.84,7.82,16.75,17,16.75,6.37,0,10.78-2.17,14-7.16a.73.73,0,0,0-.22-1l-5.6-3.6a.58.58,0,0,0-.82.2C206.68,165.63,204.62,167.29,200.69,167.29Z"/><path id="_Path_2" data-name="&lt;Path&gt;" class="cls-1" d="M238,163.7h10.64a.67.67,0,0,0,.67-.67v-5.61a.68.68,0,0,0-.68-.68H238a.47.47,0,0,1-.47-.47v-6.65a.46.46,0,0,1,.46-.46h13a.74.74,0,0,0,.74-.74v-5.94a.67.67,0,0,0-.67-.67H229.46a.69.69,0,0,0-.69.69v31.27a.67.67,0,0,0,.67.67h22.15a.74.74,0,0,0,.74-.74v-5.9a.69.69,0,0,0-.69-.69H238a.49.49,0,0,1-.49-.49V164.2A.5.5,0,0,1,238,163.7Z"/><path id="_Path_3" data-name="&lt;Path&gt;" class="cls-1" d="M287.07,157.17a.48.48,0,0,1-.78.37l-19.71-16.25c-.53-.43-.67-.19-.67.1v32.56a.51.51,0,0,0,.51.51h7.22a.48.48,0,0,0,.48-.48v-14.8a.47.47,0,0,1,.76-.36L294.6,175c.53.43.67.29.67-.1V142.28a.47.47,0,0,0-.47-.47h-7.28a.45.45,0,0,0-.45.45Z"/><path id="_Path_4" data-name="&lt;Path&gt;" class="cls-1" d="M306.43,149.16h7.62a.39.39,0,0,1,.39.39v24.13a.76.76,0,0,0,.76.76h7.22a.75.75,0,0,0,.75-.75V149.56a.4.4,0,0,1,.4-.4h7.51a.73.73,0,0,0,.73-.73v-6a.64.64,0,0,0-.64-.64H306.54a.74.74,0,0,0-.74.74v6A.63.63,0,0,0,306.43,149.16Z"/><path id="_Path_5" data-name="&lt;Path&gt;" class="cls-1" d="M353.86,163.7H364.5a.7.7,0,0,0,.7-.7v-5.57a.7.7,0,0,0-.7-.7H353.89a.5.5,0,0,1-.5-.5V149.7a.55.55,0,0,1,.55-.55h12.91a.7.7,0,0,0,.7-.7v-6a.64.64,0,0,0-.64-.64H345.27a.62.62,0,0,0-.62.62v31.19a.82.82,0,0,0,.82.82h22a.7.7,0,0,0,.7-.7v-5.91a.73.73,0,0,0-.73-.73H353.89a.5.5,0,0,1-.5-.5v-2.44A.46.46,0,0,1,353.86,163.7Z"/><path id="_Compound_Path_12" data-name="&lt;Compound Path&gt;" class="cls-1" d="M408.94,154.63c0-7.25-4.94-12.81-13.72-12.81H383.55a.71.71,0,0,0-.71.71v31.2a.72.72,0,0,0,.72.72h7.31a.7.7,0,0,0,.7-.7v-6.18a.61.61,0,0,1,.61-.61h2.3a.64.64,0,0,1,.55.31l4.14,6.8a.78.78,0,0,0,.67.37h8.23a.43.43,0,0,0,.37-.67l-5.16-8.23a.42.42,0,0,1,.15-.59C407,162.82,408.94,159.17,408.94,154.63ZM394.78,160h-2.57a.64.64,0,0,1-.64-.64v-9.54a.61.61,0,0,1,.61-.61h2.6c3.93,0,5.37,2.25,5.37,5.42S398.72,160,394.78,160Z"/></g><g id="_Group_4" data-name="&lt;Group&gt;"><path id="_Path_6" data-name="&lt;Path&gt;" class="cls-1" d="M406.13,110.66H379a1.88,1.88,0,0,1-1.88-1.89l0-7.91.1-39.57a48.72,48.72,0,0,0-.37-8.1,14,14,0,0,0-.87-3,13.8,13.8,0,0,0-3.34-4.84c-2.57-2.38-5.75-3.14-9.16-3.46-1.31-.12-9.93-.43-9.93-.31,0,4.81.07,64.57,0,70.89l-.06,16.7a1.32,1.32,0,0,0,1.32,1.32H406a1.93,1.93,0,0,0,1.93-1.93V112.45A1.79,1.79,0,0,0,406.13,110.66Z"/><path id="_Path_7" data-name="&lt;Path&gt;" class="cls-1" d="M259.13,108.64l-15.3-9.84a1.68,1.68,0,0,0-2.35.58c-3.74,6.2-9.29,10.63-19.83,10.63C208.2,110,200,99.15,200,85.3s7.89-24.58,20.83-24.58c10,0,15.38,4.27,18.81,8.88a2.09,2.09,0,0,0,2.84.43L257.36,60a1.39,1.39,0,0,0,.36-2c-7.41-10.28-18.89-17.73-37.23-17.73-23.55,0-44.51,18.5-44.51,45s21.09,45.16,45.8,45.16c17.29,0,29.24-5.94,37.85-19.59A1.64,1.64,0,0,0,259.13,108.64Z"/><path id="_Path_8" data-name="&lt;Path&gt;" class="cls-1" d="M76.75,110.66H39.26A1.23,1.23,0,0,1,38,109.43V63.48a1.21,1.21,0,0,1,1.21-1.21H74.68a1.52,1.52,0,0,0,1.52-1.52v-17a1.29,1.29,0,0,0-1.29-1.29H15.8a1.32,1.32,0,0,0-1.32,1.32v85.07a1.6,1.6,0,0,0,1.6,1.6H76.64A1.37,1.37,0,0,0,78,129.09V111.92A1.26,1.26,0,0,0,76.75,110.66Z"/><circle id="_Path_9" data-name="&lt;Path&gt;" class="cls-1" cx="60" cy="85.69" r="9.3"/><path id="_Path_10" data-name="&lt;Path&gt;" class="cls-1" d="M333.31,110.66H295.82a1.23,1.23,0,0,1-1.23-1.23V63.48a1.21,1.21,0,0,1,1.21-1.21h35.44a1.52,1.52,0,0,0,1.52-1.52v-17a1.29,1.29,0,0,0-1.29-1.29H272.35A1.32,1.32,0,0,0,271,43.79v85.07a1.6,1.6,0,0,0,1.6,1.6h60.56a1.37,1.37,0,0,0,1.37-1.37V111.92A1.26,1.26,0,0,0,333.31,110.66Z"/><circle id="_Path_11" data-name="&lt;Path&gt;" class="cls-1" cx="316.55" cy="85.69" r="9.3"/><path id="_Path_12" data-name="&lt;Path&gt;" class="cls-1" d="M142.81,85.47,113.3,41.91a.93.93,0,0,0-.77-.41H90.61A.93.93,0,0,0,89.85,43l29.49,42.47a.93.93,0,0,1,0,1.06L89.76,129a.93.93,0,0,0,.76,1.46h21.91a.93.93,0,0,0,.77-.41l29.61-43.54A.93.93,0,0,0,142.81,85.47Z"/><path id="_Path_13" data-name="&lt;Path&gt;" class="cls-1" d="M145.68,88.84l-11.76,17.3,16.26,23.91a.93.93,0,0,0,.77.41h21.91a.93.93,0,0,0,.76-1.46Z"/><path id="_Path_14" data-name="&lt;Path&gt;" class="cls-1" d="M173.54,43a.93.93,0,0,0-.76-1.46H150.86a.93.93,0,0,0-.77.41L133.91,65.78l11.75,17.34Z"/></g></g></svg>